PathFileType	4	(X/Y/Z)	C:/Users/opensim2020/Desktop/walking_exp_matlab/subject02_walking12_straight_04.trc																																																																																																																												
DataRate	CameraRate	NumFrames	NumMarkers	Units	OrigDataRate	OrigDataStartFrame	OrigNumFrames																																																																																																																								
100	100	4	42	mm	100	2024	125																																																																																																																								
Frame#	Time	LFHD			RFHD			LBHD			RBHD			C7			T10			CLAV			STRN			RBAK			LSHO			LUPA			LELB			LFRM			LWRA			LWRB			LFIN			RSHO			RUPA			RELB			RFRM			RWRA			RWRB			RFIN			LASI			RASI			LPSI			RPSI			LTHI			LKNE			LTIB			LANK			LHEE			LTOE			RTHI			RKNE			RTIB			RANK			RHEE			RTOE			*39			*40			*41		
		X1	Y1	Z1	X2	Y2	Z2	X3	Y3	Z3	X4	Y4	Z4	X5	Y5	Z5	X6	Y6	Z6	X7	Y7	Z7	X8	Y8	Z8	X9	Y9	Z9	X10	Y10	Z10	X11	Y11	Z11	X12	Y12	Z12	X13	Y13	Z13	X14	Y14	Z14	X15	Y15	Z15	X16	Y16	Z16	X17	Y17	Z17	X18	Y18	Z18	X19	Y19	Z19	X20	Y20	Z20	X21	Y21	Z21	X22	Y22	Z22	X23	Y23	Z23	X24	Y24	Z24	X25	Y25	Z25	X26	Y26	Z26	X27	Y27	Z27	X28	Y28	Z28	X29	Y29	Z29	X30	Y30	Z30	X31	Y31	Z31	X32	Y32	Z32	X33	Y33	Z33	X34	Y34	Z34	X35	Y35	Z35	X36	Y36	Z36	X37	Y37	Z37	X38	Y38	Z38	X39	Y39	Z39	X40	Y40	Z40	X41	Y41	Z41	X42	Y42	Z42
																																																																																																																															
32	0.31	-350.61176	1728.83081	-1440.83264	-361.7865	1705.68994	-1299.26501	-470.76196	1640.42236	-1462.63953	-493.46155	1615.3783	-1323.5509	-523.2251	1497.72449	-1391.61536	-562.15314	1220.85095	-1391.53943	-380.9917	1438.44714	-1405.9054	-317.74121	1270.43665	-1408.29883	-570.67041	1316.68591	-1338.45569	-457.30505	1488.53101	-1568.92273	-435.60855	1313.51709	-1686.302	-388.25156	1189.74329	-1742.10107	-271.24899	1125.91077	-1765.27148	-136.47289	1114.8103	-1740.65381	-159.97096	1074.74121	-1773.13501	-95.71716	1069.31458	-1784.53052	-448.1348	1456.96887	-1208.72937	-509.1048	1273.44739	-1135.38037	-524.83484	1130.51294	-1123.41858	-536.93488	1014.59656	-1095.89771	-531.93433	877.16254	-1103.37427	-580.43182	892.85217	-1078.42615	-571.32056	819.99847	-1070.74658	-342.78418	957.56433	-1541.14307	-302.12686	963.62335	-1297.27893	-537.15112	1007.68512	-1439.43823	-524.36395	1013.50696	-1321.29175	-473.44992	653.38892	-1598.89795	-535.89368	473.67163	-1583.47168	-693.68048	369.58441	-1567.08386	-838.09711	204.69864	-1534.98547	-860.04401	215.82716	-1474.44141	-801.33698	50.74025	-1549.29993	-298.07147	664.87048	-1228.24866	-245.36037	467.59888	-1285.72314	-263.29498	279.58929	-1281.2218	-273.60556	88.91528	-1321.14319	-313.45947	38.48217	-1375.10156	-122.19846	39.98957	-1322.41479	-466.62518	1779.50293	-1358.56738	-2845.9375	1034.31213	3357.12939	NaN	NaN	NaN
33	0.32	-337.31235	1731.39172	-1441.05664	-348.27881	1708.13489	-1299.51294	-457.21106	1642.91309	-1462.73792	-479.9205	1617.69116	-1323.70105	-509.41849	1500.08325	-1391.77515	-547.8783	1222.98474	-1390.95886	-367.38965	1440.83545	-1406.13379	-303.92596	1272.74866	-1408.41052	-556.72186	1318.91541	-1338.66211	-444.37006	1490.39587	-1569.60608	-425.33618	1313.62854	-1685.37891	-379.91284	1188.67725	-1739.93298	-263.22195	1123.05408	-1761.93188	-128.70796	1110.25952	-1735.83862	-152.14893	1070.71729	-1768.92737	-87.86362	1064.33521	-1779.16003	-434.41956	1459.33972	-1208.91455	-493.72015	1275.37244	-1135.47729	-508.10855	1131.99951	-1123.20251	-518.08472	1015.69769	-1096.88159	-510.97113	878.36157	-1104.41089	-559.52905	893.08997	-1079.19971	-549.59064	820.42767	-1072.37488	-328.19217	958.35913	-1539.14514	-288.33829	965.6778	-1295.48743	-523.23358	1009.24286	-1439.60779	-510.71082	1015.06519	-1321.5332	-450.8786	651.60699	-1599.21033	-508.32657	471.99982	-1585.83862	-667.25403	371.05368	-1569.81409	-815.47809	211.55359	-1533.06519	-836.77399	220.46521	-1471.58875	-779.95905	57.35722	-1553.95837	-284.24927	667.19592	-1227.94067	-239.32365	467.25201	-1285.21033	-260.63779	279.65359	-1281.6781	-273.38028	89.25129	-1321.51819	-313.42471	38.35814	-1375.31091	-121.9812	39.78878	-1322.49023	-453.22531	1781.9989	-1358.78101	-2845.98096	1034.40308	3357.1355	NaN	NaN	NaN
34	0.33	-323.58682	1733.85779	-1440.94995	-334.6283	1710.27441	-1299.42444	-443.62173	1645.4729	-1462.95825	-466.28082	1620.10242	-1323.9071	-495.50549	1502.78528	-1391.80542	-533.81873	1225.33997	-1390.40894	-353.93436	1443.28149	-1406.57043	-290.24826	1275.1145	-1408.7395	-542.66156	1321.1814	-1338.2218	-431.4216	1492.20886	-1570.26233	-415.02716	1313.50452	-1683.96973	-371.61975	1187.42114	-1737.3761	-255.93062	1120.23438	-1758.86218	-121.64922	1105.02234	-1731.16577	-145.18733	1066.35803	-1765.11084	-80.5829	1058.51575	-1773.9115	-420.43417	1461.87109	-1209.06885	-478.00372	1277.32422	-1135.51965	-491.06009	1133.6134	-1123.22314	-499.35623	1017.03949	-1097.11499	-489.33588	879.81067	-1105.56763	-538.04486	893.48834	-1080.08594	-526.45563	821.16541	-1073.38562	-314.09735	959.31818	-1537.91138	-274.89011	967.5249	-1294.26428	-509.71173	1011.26245	-1439.62	-497.55405	1016.91718	-1321.78491	-428.98245	651.92401	-1599.9856	-481.13348	471.42209	-1587.92749	-640.63495	373.80188	-1571.31458	-790.98547	218.04045	-1530.75842	-812.52332	223.8019	-1468.84229	-754.8916	64.70277	-1558.57007	-271.27686	669.30878	-1227.81323	-234.47804	467.12085	-1285.11426	-257.92407	279.57895	-1281.57092	-273.07495	89.49481	-1321.65234	-313.54782	38.55163	-1375.28247	-121.862	39.65411	-1322.65027	-439.69113	1784.44519	-1358.82239	-2845.75537	1034.42322	3357.22021	NaN	NaN	NaN
35	0.34	-310.11954	1736.47131	-1441.28711	-321.07376	1712.755	-1299.86816	-430.03888	1648.06262	-1463.23438	-452.72314	1622.46631	-1324.20129	-481.6586	1505.60876	-1391.93945	-519.96155	1227.85474	-1390.04065	-340.5054	1445.73718	-1407.15674	-276.59253	1277.57373	-1409.24463	-529.09052	1323.94861	-1337.97192	-418.31421	1494.23694	-1570.94202	-405.22159	1313.91882	-1683.06006	-363.37473	1186.19617	-1734.53784	-248.92952	1117.20984	-1755.63635	-115.02648	1099.1709	-1726.66296	-139.04395	1061.62756	-1761.60498	-74.09803	1051.92468	-1768.77063	-406.06467	1464.65247	-1209.44739	-462.53629	1279.44958	-1135.93811	-473.82306	1135.34912	-1123.14587	-479.74353	1018.52441	-1097.50208	-466.43658	881.63715	-1106.58032	-515.79053	894.05499	-1081.04114	-502.52032	822.09167	-1074.56287	-300.53372	960.76483	-1537.37598	-261.74203	969.16736	-1293.40845	-496.52448	1013.69073	-1439.4541	-484.71423	1019.18054	-1321.97363	-407.99213	653.42853	-1600.50488	-453.9473	471.8165	-1589.09412	-613.72015	377.15051	-1571.17859	-764.59418	222.77562	-1528.69873	-786.48181	226.24677	-1466.92676	-726.84991	70.69564	-1562.49878	-260.76056	670.76605	-1228.08789	-229.24026	467.04773	-1284.74084	-255.18045	279.52615	-1280.80835	-272.80411	89.64971	-1321.66284	-313.54523	38.60095	-1375.32959	-121.80061	39.5566	-1322.62952	-426.06833	1786.90393	-1358.87988	-2845.21606	1034.26038	3360.41211	NaN	NaN	NaN
